<?xml version="1.0" encoding="UTF-8" standalone="no"?><svg xmlns="http://www.w3.org/2000/svg" xmlns:xlink="http://www.w3.org/1999/xlink" contentScriptType="application/ecmascript" contentStyleType="text/css" height="604px" preserveAspectRatio="none" style="width:642px;height:604px;" version="1.1" viewBox="0 0 642 604" width="642px" zoomAndPan="magnify"><defs><filter height="300%" id="f1eeb7eisijv4b" width="300%" x="-1" y="-1"><feGaussianBlur result="blurOut" stdDeviation="2.0"/><feColorMatrix in="blurOut" result="blurOut2" type="matrix" values="0 0 0 0 0 0 0 0 0 0 0 0 0 0 0 0 0 0 .4 0"/><feOffset dx="4.0" dy="4.0" in="blurOut2" result="blurOut3"/><feBlend in="SourceGraphic" in2="blurOut3" mode="normal"/></filter></defs><g><rect fill="#FFFFFF" filter="url(#f1eeb7eisijv4b)" height="29.1328" style="stroke: #A80036; stroke-width: 1.0;" width="10" x="65" y="109.8594"/><rect fill="#FFFFFF" filter="url(#f1eeb7eisijv4b)" height="29.1328" style="stroke: #A80036; stroke-width: 1.0;" width="10" x="65" y="168.125"/><rect fill="#FFFFFF" filter="url(#f1eeb7eisijv4b)" height="40.1328" style="stroke: #A80036; stroke-width: 1.0;" width="10" x="305" y="234.3906"/><rect fill="#FFFFFF" filter="url(#f1eeb7eisijv4b)" height="174.4688" style="stroke: #A80036; stroke-width: 1.0;" width="10" x="560" y="334.7891"/><rect fill="#FFFFFF" filter="url(#f1eeb7eisijv4b)" height="234.7344" style="stroke: #000000; stroke-width: 2.0;" width="429" x="202.5" y="296.5234"/><rect fill="#FFFFFF" filter="url(#f1eeb7eisijv4b)" height="174.4688" style="stroke: #000000; stroke-width: 2.0;" width="409" x="212.5" y="349.7891"/><rect fill="#FFFFFF" height="86.0703" style="stroke: none; stroke-width: 1.0;" width="409" x="212.5" y="438.1875"/><line style="stroke: #A80036; stroke-width: 1.0; stroke-dasharray: 5.0,5.0;" x1="70" x2="70" y1="54.5938" y2="548.2578"/><line style="stroke: #A80036; stroke-width: 1.0; stroke-dasharray: 5.0,5.0;" x1="309.5" x2="309.5" y1="54.5938" y2="548.2578"/><line style="stroke: #A80036; stroke-width: 1.0; stroke-dasharray: 5.0,5.0;" x1="564.5" x2="564.5" y1="54.5938" y2="548.2578"/><rect fill="#FEFECE" filter="url(#f1eeb7eisijv4b)" height="46.5938" style="stroke: #A80036; stroke-width: 1.5;" width="90" x="23" y="3"/><text fill="#000000" font-family="sans-serif" font-size="14" lengthAdjust="spacingAndGlyphs" textLength="76" x="30" y="22.9951">Notification</text><text fill="#000000" font-family="sans-serif" font-size="14" lengthAdjust="spacingAndGlyphs" textLength="64" x="36" y="39.292">database</text><rect fill="#FEFECE" filter="url(#f1eeb7eisijv4b)" height="46.5938" style="stroke: #A80036; stroke-width: 1.5;" width="90" x="23" y="547.2578"/><text fill="#000000" font-family="sans-serif" font-size="14" lengthAdjust="spacingAndGlyphs" textLength="76" x="30" y="567.2529">Notification</text><text fill="#000000" font-family="sans-serif" font-size="14" lengthAdjust="spacingAndGlyphs" textLength="64" x="36" y="583.5498">database</text><rect fill="#FEFECE" filter="url(#f1eeb7eisijv4b)" height="30.2969" style="stroke: #A80036; stroke-width: 1.5;" width="171" x="222.5" y="19.2969"/><text fill="#000000" font-family="sans-serif" font-size="14" lengthAdjust="spacingAndGlyphs" textLength="157" x="229.5" y="39.292">ccx-notification-service</text><rect fill="#FEFECE" filter="url(#f1eeb7eisijv4b)" height="30.2969" style="stroke: #A80036; stroke-width: 1.5;" width="171" x="222.5" y="547.2578"/><text fill="#000000" font-family="sans-serif" font-size="14" lengthAdjust="spacingAndGlyphs" textLength="157" x="229.5" y="567.2529">ccx-notification-service</text><rect fill="#FEFECE" filter="url(#f1eeb7eisijv4b)" height="46.5938" style="stroke: #A80036; stroke-width: 1.5;" width="89" x="518.5" y="3"/><text fill="#000000" font-family="sans-serif" font-size="14" lengthAdjust="spacingAndGlyphs" textLength="75" x="525.5" y="22.9951">ServiceLog</text><text fill="#000000" font-family="sans-serif" font-size="14" lengthAdjust="spacingAndGlyphs" textLength="62" x="532" y="39.292">REST API</text><rect fill="#FEFECE" filter="url(#f1eeb7eisijv4b)" height="46.5938" style="stroke: #A80036; stroke-width: 1.5;" width="89" x="518.5" y="547.2578"/><text fill="#000000" font-family="sans-serif" font-size="14" lengthAdjust="spacingAndGlyphs" textLength="75" x="525.5" y="567.2529">ServiceLog</text><text fill="#000000" font-family="sans-serif" font-size="14" lengthAdjust="spacingAndGlyphs" textLength="62" x="532" y="583.5498">REST API</text><rect fill="#FFFFFF" filter="url(#f1eeb7eisijv4b)" height="29.1328" style="stroke: #A80036; stroke-width: 1.0;" width="10" x="65" y="109.8594"/><rect fill="#FFFFFF" filter="url(#f1eeb7eisijv4b)" height="29.1328" style="stroke: #A80036; stroke-width: 1.0;" width="10" x="65" y="168.125"/><rect fill="#FFFFFF" filter="url(#f1eeb7eisijv4b)" height="40.1328" style="stroke: #A80036; stroke-width: 1.0;" width="10" x="305" y="234.3906"/><rect fill="#FFFFFF" filter="url(#f1eeb7eisijv4b)" height="174.4688" style="stroke: #A80036; stroke-width: 1.0;" width="10" x="560" y="334.7891"/><polygon fill="#A80036" points="86,105.8594,76,109.8594,86,113.8594,82,109.8594" style="stroke: #A80036; stroke-width: 1.0;"/><line style="stroke: #A80036; stroke-width: 1.0;" x1="80" x2="309" y1="109.8594" y2="109.8594"/><text fill="#000000" font-family="sans-serif" font-size="13" lengthAdjust="spacingAndGlyphs" textLength="164" x="92" y="104.7935">request(read new results)</text><polygon fill="#A80036" points="298,134.9922,308,138.9922,298,142.9922,302,138.9922" style="stroke: #A80036; stroke-width: 1.0;"/><line style="stroke: #A80036; stroke-width: 1.0; stroke-dasharray: 2.0,2.0;" x1="70" x2="304" y1="138.9922" y2="138.9922"/><text fill="#000000" font-family="sans-serif" font-size="13" lengthAdjust="spacingAndGlyphs" textLength="130" x="77" y="133.9263">here are new results</text><polygon fill="#A80036" points="86,164.125,76,168.125,86,172.125,82,168.125" style="stroke: #A80036; stroke-width: 1.0;"/><line style="stroke: #A80036; stroke-width: 1.0;" x1="80" x2="309" y1="168.125" y2="168.125"/><text fill="#000000" font-family="sans-serif" font-size="13" lengthAdjust="spacingAndGlyphs" textLength="194" x="92" y="163.0591">request(read reported results)</text><polygon fill="#A80036" points="298,193.2578,308,197.2578,298,201.2578,302,197.2578" style="stroke: #A80036; stroke-width: 1.0;"/><line style="stroke: #A80036; stroke-width: 1.0; stroke-dasharray: 2.0,2.0;" x1="70" x2="304" y1="197.2578" y2="197.2578"/><text fill="#000000" font-family="sans-serif" font-size="13" lengthAdjust="spacingAndGlyphs" textLength="211" x="77" y="192.1919">here are already reported results</text><line style="stroke: #A80036; stroke-width: 1.0;" x1="310" x2="357" y1="221.3906" y2="221.3906"/><line style="stroke: #A80036; stroke-width: 1.0;" x1="357" x2="357" y1="221.3906" y2="234.3906"/><line style="stroke: #A80036; stroke-width: 1.0;" x1="316" x2="357" y1="234.3906" y2="234.3906"/><polygon fill="#A80036" points="326,230.3906,316,234.3906,326,238.3906,322,234.3906" style="stroke: #A80036; stroke-width: 1.0;"/><text fill="#000000" font-family="sans-serif" font-size="13" lengthAdjust="spacingAndGlyphs" textLength="241" x="322" y="216.3247">find_diff(reported results, new results)</text><line style="stroke: #A80036; stroke-width: 1.0; stroke-dasharray: 2.0,2.0;" x1="315" x2="357" y1="273.5234" y2="273.5234"/><line style="stroke: #A80036; stroke-width: 1.0; stroke-dasharray: 2.0,2.0;" x1="357" x2="357" y1="273.5234" y2="286.5234"/><line style="stroke: #A80036; stroke-width: 1.0; stroke-dasharray: 2.0,2.0;" x1="310" x2="357" y1="286.5234" y2="286.5234"/><polygon fill="#A80036" points="320,282.5234,310,286.5234,320,290.5234,316,286.5234" style="stroke: #A80036; stroke-width: 1.0;"/><text fill="#000000" font-family="sans-serif" font-size="13" lengthAdjust="spacingAndGlyphs" textLength="19" x="322" y="268.4575">diff</text><path d="M202.5,296.5234 L279.5,296.5234 L279.5,303.5234 L269.5,313.5234 L202.5,313.5234 L202.5,296.5234 " fill="#EEEEEE" style="stroke: #000000; stroke-width: 1.0;"/><rect fill="none" height="234.7344" style="stroke: #000000; stroke-width: 2.0;" width="429" x="202.5" y="296.5234"/><text fill="#000000" font-family="sans-serif" font-size="13" font-weight="bold" lengthAdjust="spacingAndGlyphs" textLength="32" x="217.5" y="309.5903">loop</text><text fill="#000000" font-family="sans-serif" font-size="11" font-weight="bold" lengthAdjust="spacingAndGlyphs" textLength="129" x="294.5" y="308.7339">[for all new reports]</text><polygon fill="#A80036" points="548,330.7891,558,334.7891,548,338.7891,552,334.7891" style="stroke: #A80036; stroke-width: 1.0;"/><line style="stroke: #A80036; stroke-width: 1.0;" x1="310" x2="554" y1="334.7891" y2="334.7891"/><text fill="#000000" font-family="sans-serif" font-size="13" lengthAdjust="spacingAndGlyphs" textLength="141" x="317" y="329.7231">notify(one new report)</text><path d="M212.5,349.7891 L276.5,349.7891 L276.5,356.7891 L266.5,366.7891 L212.5,366.7891 L212.5,349.7891 " fill="#EEEEEE" style="stroke: #000000; stroke-width: 1.0;"/><rect fill="none" height="174.4688" style="stroke: #000000; stroke-width: 2.0;" width="409" x="212.5" y="349.7891"/><text fill="#000000" font-family="sans-serif" font-size="13" font-weight="bold" lengthAdjust="spacingAndGlyphs" textLength="19" x="227.5" y="362.856">alt</text><text fill="#000000" font-family="sans-serif" font-size="11" font-weight="bold" lengthAdjust="spacingAndGlyphs" textLength="122" x="291.5" y="361.9995">[success (200 OK)]</text><polygon fill="#A80036" points="321,384.0547,311,388.0547,321,392.0547,317,388.0547" style="stroke: #A80036; stroke-width: 1.0;"/><line style="stroke: #A80036; stroke-width: 1.0; stroke-dasharray: 2.0,2.0;" x1="315" x2="559" y1="388.0547" y2="388.0547"/><text fill="#000000" font-family="sans-serif" font-size="13" lengthAdjust="spacingAndGlyphs" textLength="59" x="327" y="382.9888">accepted</text><line style="stroke: #A80036; stroke-width: 1.0;" x1="310" x2="352" y1="417.1875" y2="417.1875"/><line style="stroke: #A80036; stroke-width: 1.0;" x1="352" x2="352" y1="417.1875" y2="430.1875"/><line style="stroke: #A80036; stroke-width: 1.0;" x1="311" x2="352" y1="430.1875" y2="430.1875"/><polygon fill="#A80036" points="321,426.1875,311,430.1875,321,434.1875,317,430.1875" style="stroke: #A80036; stroke-width: 1.0;"/><text fill="#000000" font-family="sans-serif" font-size="13" lengthAdjust="spacingAndGlyphs" textLength="68" x="317" y="412.1216">update DB</text><line style="stroke: #000000; stroke-width: 1.0; stroke-dasharray: 2.0,2.0;" x1="212.5" x2="621.5" y1="439.1875" y2="439.1875"/><text fill="#000000" font-family="sans-serif" font-size="11" font-weight="bold" lengthAdjust="spacingAndGlyphs" textLength="52" x="217.5" y="449.3979">[failure]</text><polygon fill="#A80036" points="321,470.125,311,474.125,321,478.125,317,474.125" style="stroke: #A80036; stroke-width: 1.0;"/><line style="stroke: #A80036; stroke-width: 1.0; stroke-dasharray: 2.0,2.0;" x1="315" x2="559" y1="474.125" y2="474.125"/><text fill="#000000" font-family="sans-serif" font-size="13" lengthAdjust="spacingAndGlyphs" textLength="52" x="327" y="469.0591">rejected</text><line style="stroke: #A80036; stroke-width: 1.0;" x1="310" x2="352" y1="508.2578" y2="508.2578"/><line style="stroke: #A80036; stroke-width: 1.0;" x1="352" x2="352" y1="508.2578" y2="521.2578"/><line style="stroke: #A80036; stroke-width: 1.0;" x1="305" x2="352" y1="521.2578" y2="521.2578"/><polygon fill="#A80036" points="315,517.2578,305,521.2578,315,525.2578,311,521.2578" style="stroke: #A80036; stroke-width: 1.0;"/><text fill="#000000" font-family="sans-serif" font-size="13" lengthAdjust="spacingAndGlyphs" textLength="54" x="317" y="503.1919">log error</text><!--MD5=[dd14ea7e664a4f5760430662c6af64d7]
@startuml
participant "Notification\ndatabase"
participant "ccx-notification-service"
participant "ServiceLog\nREST API"

loop
"ccx-notification-service" -> "Notification\ndatabase" : request(read new results)
activate "Notification\ndatabase"
"ccx-notification-service" <- - "Notification\ndatabase": here are new results
deactivate "Notification\ndatabase"
"ccx-notification-service" -> "Notification\ndatabase" : request(read reported results)
activate "Notification\ndatabase"
"ccx-notification-service" <- - "Notification\ndatabase": here are already reported results
deactivate "Notification\ndatabase"
"ccx-notification-service" -> "ccx-notification-service" : find_diff(reported results, new results)
activate "ccx-notification-service"
"ccx-notification-service" <- - "ccx-notification-service": diff
deactivate "ccx-notification-service"
loop for all new reports
"ccx-notification-service" -> "ServiceLog\nREST API" : notify(one new report)
activate "ServiceLog\nREST API"
alt success (200 OK)
"ccx-notification-service" <- - "ServiceLog\nREST API": accepted
"ccx-notification-service" -> "ccx-notification-service": update DB
else failure
"ccx-notification-service" <- - "ServiceLog\nREST API": rejected
"ccx-notification-service" -> "ccx-notification-service": log error
deactivate "ServiceLog\nREST API"
end
end
@enduml

PlantUML version 1.2019.12(Sun Nov 03 11:24:54 CET 2019)
(GPL source distribution)
Java Runtime: OpenJDK Runtime Environment
JVM: OpenJDK 64-Bit Server VM
Java Version: 11.0.15+10-Ubuntu-0ubuntu0.20.04.1
Operating System: Linux
Default Encoding: UTF-8
Language: en
Country: US
--></g></svg>