<?xml version="1.0" encoding="UTF-8" standalone="no"?><svg xmlns="http://www.w3.org/2000/svg" xmlns:xlink="http://www.w3.org/1999/xlink" contentScriptType="application/ecmascript" contentStyleType="text/css" height="999px" preserveAspectRatio="none" style="width:852px;height:999px;background:#FFFFFF;" version="1.1" viewBox="0 0 852 999" width="852px" zoomAndPan="magnify"><defs><filter height="300%" id="f1pa2w9v66wu00" width="300%" x="-1" y="-1"><feGaussianBlur result="blurOut" stdDeviation="2.0"/><feColorMatrix in="blurOut" result="blurOut2" type="matrix" values="0 0 0 0 0 0 0 0 0 0 0 0 0 0 0 0 0 0 .4 0"/><feOffset dx="4.0" dy="4.0" in="blurOut2" result="blurOut3"/><feBlend in="SourceGraphic" in2="blurOut3" mode="normal"/></filter></defs><g><rect fill="#FFFFFF" filter="url(#f1pa2w9v66wu00)" height="40.1328" style="stroke:#A80036;stroke-width:1.0;" width="10" x="179.5" y="525.7188"/><rect fill="#FFFFFF" filter="url(#f1pa2w9v66wu00)" height="109.5313" style="stroke:#A80036;stroke-width:1.0;" width="10" x="179.5" y="609.9844"/><rect fill="#FFFFFF" filter="url(#f1pa2w9v66wu00)" height="55.2656" style="stroke:#A80036;stroke-width:1.0;" width="10" x="179.5" y="763.6484"/><rect fill="#FFFFFF" filter="url(#f1pa2w9v66wu00)" height="29.1328" style="stroke:#A80036;stroke-width:1.0;" width="10" x="517.5" y="318.7891"/><rect fill="#FFFFFF" filter="url(#f1pa2w9v66wu00)" height="29.1328" style="stroke:#A80036;stroke-width:1.0;" width="10" x="517.5" y="401.1875"/><rect fill="#FFFFFF" filter="url(#f1pa2w9v66wu00)" height="29.1328" style="stroke:#A80036;stroke-width:1.0;" width="10" x="517.5" y="459.4531"/><rect fill="#FFFFFF" filter="url(#f1pa2w9v66wu00)" height="29.1328" style="stroke:#A80036;stroke-width:1.0;" width="10" x="696" y="879.1797"/><rect fill="#FFFFFF" filter="url(#f1pa2w9v66wu00)" height="560.3906" style="stroke:#000000;stroke-width:2.0;" width="770" x="68" y="362.9219"/><rect fill="#FFFFFF" filter="url(#f1pa2w9v66wu00)" height="75.3984" style="stroke:#000000;stroke-width:2.0;" width="748" x="80" y="840.9141"/><line style="stroke:#A80036;stroke-width:1.0;stroke-dasharray:5.0,5.0;" x1="50" x2="50" y1="56.5938" y2="940.3125"/><line style="stroke:#A80036;stroke-width:1.0;stroke-dasharray:5.0,5.0;" x1="184" x2="184" y1="56.5938" y2="940.3125"/><line style="stroke:#A80036;stroke-width:1.0;stroke-dasharray:5.0,5.0;" x1="522" x2="522" y1="56.5938" y2="940.3125"/><line style="stroke:#A80036;stroke-width:1.0;stroke-dasharray:5.0,5.0;" x1="701" x2="701" y1="56.5938" y2="940.3125"/><rect fill="#FEFECE" filter="url(#f1pa2w9v66wu00)" height="30.2969" style="stroke:#A80036;stroke-width:1.5;" width="56" x="20" y="21.2969"/><text fill="#000000" font-family="sans-serif" font-size="14" lengthAdjust="spacing" textLength="42" x="27" y="41.292">Timer</text><rect fill="#FEFECE" filter="url(#f1pa2w9v66wu00)" height="30.2969" style="stroke:#A80036;stroke-width:1.5;" width="56" x="20" y="939.3125"/><text fill="#000000" font-family="sans-serif" font-size="14" lengthAdjust="spacing" textLength="42" x="27" y="959.3076">Timer</text><rect fill="#FEFECE" filter="url(#f1pa2w9v66wu00)" height="30.2969" style="stroke:#A80036;stroke-width:1.5;" width="185" x="90" y="21.2969"/><text fill="#000000" font-family="sans-serif" font-size="14" lengthAdjust="spacing" textLength="171" x="97" y="41.292">ccx-notification-service</text><rect fill="#FEFECE" filter="url(#f1pa2w9v66wu00)" height="30.2969" style="stroke:#A80036;stroke-width:1.5;" width="185" x="90" y="939.3125"/><text fill="#000000" font-family="sans-serif" font-size="14" lengthAdjust="spacing" textLength="171" x="97" y="959.3076">ccx-notification-service</text><rect fill="#FEFECE" filter="url(#f1pa2w9v66wu00)" height="46.5938" style="stroke:#A80036;stroke-width:1.5;" width="99" x="471" y="5"/><text fill="#000000" font-family="sans-serif" font-size="14" lengthAdjust="spacing" textLength="85" x="478" y="24.9951">Notification</text><text fill="#000000" font-family="sans-serif" font-size="14" lengthAdjust="spacing" textLength="66" x="487.5" y="41.292">database</text><rect fill="#FEFECE" filter="url(#f1pa2w9v66wu00)" height="46.5938" style="stroke:#A80036;stroke-width:1.5;" width="99" x="471" y="939.3125"/><text fill="#000000" font-family="sans-serif" font-size="14" lengthAdjust="spacing" textLength="85" x="478" y="959.3076">Notification</text><text fill="#000000" font-family="sans-serif" font-size="14" lengthAdjust="spacing" textLength="66" x="487.5" y="975.6045">database</text><rect fill="#FEFECE" filter="url(#f1pa2w9v66wu00)" height="46.5938" style="stroke:#A80036;stroke-width:1.5;" width="230" x="584" y="5"/><text fill="#000000" font-family="sans-serif" font-size="14" lengthAdjust="spacing" textLength="83" x="657.5" y="24.9951">Kafka topic</text><text fill="#000000" font-family="sans-serif" font-size="14" lengthAdjust="spacing" textLength="216" x="591" y="41.292">platform.notifications.ingress</text><rect fill="#FEFECE" filter="url(#f1pa2w9v66wu00)" height="46.5938" style="stroke:#A80036;stroke-width:1.5;" width="230" x="584" y="939.3125"/><text fill="#000000" font-family="sans-serif" font-size="14" lengthAdjust="spacing" textLength="83" x="657.5" y="959.3076">Kafka topic</text><text fill="#000000" font-family="sans-serif" font-size="14" lengthAdjust="spacing" textLength="216" x="591" y="975.6045">platform.notifications.ingress</text><rect fill="#FFFFFF" filter="url(#f1pa2w9v66wu00)" height="40.1328" style="stroke:#A80036;stroke-width:1.0;" width="10" x="179.5" y="525.7188"/><rect fill="#FFFFFF" filter="url(#f1pa2w9v66wu00)" height="109.5313" style="stroke:#A80036;stroke-width:1.0;" width="10" x="179.5" y="609.9844"/><rect fill="#FFFFFF" filter="url(#f1pa2w9v66wu00)" height="55.2656" style="stroke:#A80036;stroke-width:1.0;" width="10" x="179.5" y="763.6484"/><rect fill="#FFFFFF" filter="url(#f1pa2w9v66wu00)" height="29.1328" style="stroke:#A80036;stroke-width:1.0;" width="10" x="517.5" y="318.7891"/><rect fill="#FFFFFF" filter="url(#f1pa2w9v66wu00)" height="29.1328" style="stroke:#A80036;stroke-width:1.0;" width="10" x="517.5" y="401.1875"/><rect fill="#FFFFFF" filter="url(#f1pa2w9v66wu00)" height="29.1328" style="stroke:#A80036;stroke-width:1.0;" width="10" x="517.5" y="459.4531"/><rect fill="#FFFFFF" filter="url(#f1pa2w9v66wu00)" height="29.1328" style="stroke:#A80036;stroke-width:1.0;" width="10" x="696" y="879.1797"/><path d="M5,71.5938 L5,96.5938 L91,96.5938 L91,81.5938 L81,71.5938 L5,71.5938 " fill="#FBFB77" filter="url(#f1pa2w9v66wu00)" style="stroke:#A80036;stroke-width:1.0;"/><path d="M81,71.5938 L81,81.5938 L91,81.5938 L81,71.5938 " fill="#FBFB77" style="stroke:#A80036;stroke-width:1.0;"/><text fill="#000000" font-family="sans-serif" font-size="13" lengthAdjust="spacing" textLength="65" x="11" y="88.6606">CRON rule</text><path d="M92,110.7266 L92,150.7266 L273,150.7266 L273,120.7266 L263,110.7266 L92,110.7266 " fill="#FBFB77" filter="url(#f1pa2w9v66wu00)" style="stroke:#A80036;stroke-width:1.0;"/><path d="M263,110.7266 L263,120.7266 L273,120.7266 L263,110.7266 " fill="#FBFB77" style="stroke:#A80036;stroke-width:1.0;"/><text fill="#000000" font-family="sans-serif" font-size="13" lengthAdjust="spacing" textLength="160" x="98" y="127.7935">CRON job configured and</text><text fill="#000000" font-family="sans-serif" font-size="13" lengthAdjust="spacing" textLength="143" x="98" y="142.9263">deployed to OpenShift</text><path d="M440,164.9922 L440,204.9922 L601,204.9922 L601,174.9922 L591,164.9922 L440,164.9922 " fill="#FBFB77" filter="url(#f1pa2w9v66wu00)" style="stroke:#A80036;stroke-width:1.0;"/><path d="M591,164.9922 L591,174.9922 L601,174.9922 L591,164.9922 " fill="#FBFB77" style="stroke:#A80036;stroke-width:1.0;"/><text fill="#000000" font-family="sans-serif" font-size="13" lengthAdjust="spacing" textLength="61" x="446" y="182.0591">AWS RDS</text><text fill="#000000" font-family="sans-serif" font-size="13" lengthAdjust="spacing" textLength="140" x="446" y="197.1919">or regular PostgreSQL</text><path d="M635,219.2578 L635,259.2578 L762,259.2578 L762,229.2578 L752,219.2578 L635,219.2578 " fill="#FBFB77" filter="url(#f1pa2w9v66wu00)" style="stroke:#A80036;stroke-width:1.0;"/><path d="M752,219.2578 L752,229.2578 L762,229.2578 L752,219.2578 " fill="#FBFB77" style="stroke:#A80036;stroke-width:1.0;"/><text fill="#000000" font-family="sans-serif" font-size="13" lengthAdjust="spacing" textLength="72" x="641" y="236.3247">Notification</text><text fill="#000000" font-family="sans-serif" font-size="13" lengthAdjust="spacing" textLength="106" x="641" y="251.4575">service gateway</text><polygon fill="#A80036" points="172.5,285.6563,182.5,289.6563,172.5,293.6563,176.5,289.6563" style="stroke:#A80036;stroke-width:1.0;"/><line style="stroke:#A80036;stroke-width:1.0;" x1="50" x2="178.5" y1="289.6563" y2="289.6563"/><text fill="#000000" font-family="sans-serif" font-size="13" lengthAdjust="spacing" textLength="69" x="57" y="284.5903">notify(tick)</text><polygon fill="#A80036" points="505.5,314.7891,515.5,318.7891,505.5,322.7891,509.5,318.7891" style="stroke:#A80036;stroke-width:1.0;"/><line style="stroke:#A80036;stroke-width:1.0;" x1="184.5" x2="511.5" y1="318.7891" y2="318.7891"/><text fill="#000000" font-family="sans-serif" font-size="13" lengthAdjust="spacing" textLength="205" x="191.5" y="313.7231">request(read list of new results)</text><polygon fill="#A80036" points="195.5,343.9219,185.5,347.9219,195.5,351.9219,191.5,347.9219" style="stroke:#A80036;stroke-width:1.0;"/><line style="stroke:#A80036;stroke-width:1.0;stroke-dasharray:2.0,2.0;" x1="189.5" x2="521.5" y1="347.9219" y2="347.9219"/><text fill="#000000" font-family="sans-serif" font-size="13" lengthAdjust="spacing" textLength="113" x="201.5" y="342.856">list of new results</text><path d="M68,362.9219 L146,362.9219 L146,369.9219 L136,379.9219 L68,379.9219 L68,362.9219 " fill="#EEEEEE" style="stroke:#000000;stroke-width:1.0;"/><rect fill="none" height="560.3906" style="stroke:#000000;stroke-width:2.0;" width="770" x="68" y="362.9219"/><text fill="#000000" font-family="sans-serif" font-size="13" font-weight="bold" lengthAdjust="spacing" textLength="33" x="83" y="375.9888">loop</text><text fill="#000000" font-family="sans-serif" font-size="11" font-weight="bold" lengthAdjust="spacing" textLength="193" x="161" y="375.1323">[iterate over all new results]</text><polygon fill="#A80036" points="505.5,397.1875,515.5,401.1875,505.5,405.1875,509.5,401.1875" style="stroke:#A80036;stroke-width:1.0;"/><line style="stroke:#A80036;stroke-width:1.0;" x1="184.5" x2="511.5" y1="401.1875" y2="401.1875"/><text fill="#000000" font-family="sans-serif" font-size="13" lengthAdjust="spacing" textLength="245" x="191.5" y="396.1216">request(read new result, cluster UUID)</text><polygon fill="#A80036" points="195.5,426.3203,185.5,430.3203,195.5,434.3203,191.5,430.3203" style="stroke:#A80036;stroke-width:1.0;"/><line style="stroke:#A80036;stroke-width:1.0;stroke-dasharray:2.0,2.0;" x1="189.5" x2="521.5" y1="430.3203" y2="430.3203"/><text fill="#000000" font-family="sans-serif" font-size="13" lengthAdjust="spacing" textLength="229" x="201.5" y="425.2544">here are new result for cluster UUID</text><polygon fill="#A80036" points="505.5,455.4531,515.5,459.4531,505.5,463.4531,509.5,459.4531" style="stroke:#A80036;stroke-width:1.0;"/><line style="stroke:#A80036;stroke-width:1.0;" x1="184.5" x2="511.5" y1="459.4531" y2="459.4531"/><text fill="#000000" font-family="sans-serif" font-size="13" lengthAdjust="spacing" textLength="273" x="191.5" y="454.3872">request(read reported result, cluster UUID)</text><polygon fill="#A80036" points="195.5,484.5859,185.5,488.5859,195.5,492.5859,191.5,488.5859" style="stroke:#A80036;stroke-width:1.0;"/><line style="stroke:#A80036;stroke-width:1.0;stroke-dasharray:2.0,2.0;" x1="189.5" x2="521.5" y1="488.5859" y2="488.5859"/><text fill="#000000" font-family="sans-serif" font-size="13" lengthAdjust="spacing" textLength="309" x="201.5" y="483.52">here are already reported result for cluster UUID</text><line style="stroke:#A80036;stroke-width:1.0;" x1="184.5" x2="231.5" y1="512.7188" y2="512.7188"/><line style="stroke:#A80036;stroke-width:1.0;" x1="231.5" x2="231.5" y1="512.7188" y2="525.7188"/><line style="stroke:#A80036;stroke-width:1.0;" x1="190.5" x2="231.5" y1="525.7188" y2="525.7188"/><polygon fill="#A80036" points="200.5,521.7188,190.5,525.7188,200.5,529.7188,196.5,525.7188" style="stroke:#A80036;stroke-width:1.0;"/><text fill="#000000" font-family="sans-serif" font-size="13" lengthAdjust="spacing" textLength="283" x="196.5" y="507.6528">find_differences(reported result, new result)</text><line style="stroke:#A80036;stroke-width:1.0;stroke-dasharray:2.0,2.0;" x1="147.5" x2="189.5" y1="564.8516" y2="564.8516"/><line style="stroke:#A80036;stroke-width:1.0;stroke-dasharray:2.0,2.0;" x1="147.5" x2="147.5" y1="564.8516" y2="577.8516"/><line style="stroke:#A80036;stroke-width:1.0;stroke-dasharray:2.0,2.0;" x1="147.5" x2="194.5" y1="577.8516" y2="577.8516"/><polygon fill="#A80036" points="174.5,573.8516,184.5,577.8516,174.5,581.8516,178.5,577.8516" style="stroke:#A80036;stroke-width:1.0;"/><text fill="#000000" font-family="sans-serif" font-size="13" lengthAdjust="spacing" textLength="62" x="127.5" y="559.7856">new rules</text><line style="stroke:#A80036;stroke-width:1.0;" x1="184.5" x2="231.5" y1="596.9844" y2="596.9844"/><line style="stroke:#A80036;stroke-width:1.0;" x1="231.5" x2="231.5" y1="596.9844" y2="609.9844"/><line style="stroke:#A80036;stroke-width:1.0;" x1="190.5" x2="231.5" y1="609.9844" y2="609.9844"/><polygon fill="#A80036" points="200.5,605.9844,190.5,609.9844,200.5,613.9844,196.5,609.9844" style="stroke:#A80036;stroke-width:1.0;"/><text fill="#000000" font-family="sans-serif" font-size="13" lengthAdjust="spacing" textLength="234" x="196.5" y="591.9185">filter(new rules, total_risk_threshold)</text><path d="M78,627.9844 L78,667.9844 L286,667.9844 L286,637.9844 L276,627.9844 L78,627.9844 " fill="#FBFB77" filter="url(#f1pa2w9v66wu00)" style="stroke:#A80036;stroke-width:1.0;"/><path d="M276,627.9844 L276,637.9844 L286,637.9844 L276,627.9844 " fill="#FBFB77" style="stroke:#A80036;stroke-width:1.0;"/><text fill="#000000" font-family="sans-serif" font-size="13" lengthAdjust="spacing" textLength="144" x="84" y="645.0513">currently any new rule</text><text fill="#000000" font-family="sans-serif" font-size="13" lengthAdjust="spacing" textLength="187" x="84" y="660.1841">with any total risk is reported</text><line style="stroke:#A80036;stroke-width:1.0;stroke-dasharray:2.0,2.0;" x1="147.5" x2="189.5" y1="718.5156" y2="718.5156"/><line style="stroke:#A80036;stroke-width:1.0;stroke-dasharray:2.0,2.0;" x1="147.5" x2="147.5" y1="718.5156" y2="731.5156"/><line style="stroke:#A80036;stroke-width:1.0;stroke-dasharray:2.0,2.0;" x1="147.5" x2="194.5" y1="731.5156" y2="731.5156"/><polygon fill="#A80036" points="174.5,727.5156,184.5,731.5156,174.5,735.5156,178.5,731.5156" style="stroke:#A80036;stroke-width:1.0;"/><text fill="#000000" font-family="sans-serif" font-size="13" lengthAdjust="spacing" textLength="45" x="127.5" y="698.3169">filtered</text><text fill="#000000" font-family="sans-serif" font-size="13" lengthAdjust="spacing" textLength="62" x="127.5" y="713.4497">new rules</text><line style="stroke:#A80036;stroke-width:1.0;" x1="184.5" x2="231.5" y1="750.6484" y2="750.6484"/><line style="stroke:#A80036;stroke-width:1.0;" x1="231.5" x2="231.5" y1="750.6484" y2="763.6484"/><line style="stroke:#A80036;stroke-width:1.0;" x1="190.5" x2="231.5" y1="763.6484" y2="763.6484"/><polygon fill="#A80036" points="200.5,759.6484,190.5,763.6484,200.5,767.6484,196.5,763.6484" style="stroke:#A80036;stroke-width:1.0;"/><text fill="#000000" font-family="sans-serif" font-size="13" lengthAdjust="spacing" textLength="315" x="196.5" y="745.5825">prepare_notification_message(filtered new rules)</text><line style="stroke:#A80036;stroke-width:1.0;stroke-dasharray:2.0,2.0;" x1="147.5" x2="189.5" y1="817.9141" y2="817.9141"/><line style="stroke:#A80036;stroke-width:1.0;stroke-dasharray:2.0,2.0;" x1="147.5" x2="147.5" y1="817.9141" y2="830.9141"/><line style="stroke:#A80036;stroke-width:1.0;stroke-dasharray:2.0,2.0;" x1="147.5" x2="194.5" y1="830.9141" y2="830.9141"/><polygon fill="#A80036" points="174.5,826.9141,184.5,830.9141,174.5,834.9141,178.5,830.9141" style="stroke:#A80036;stroke-width:1.0;"/><text fill="#000000" font-family="sans-serif" font-size="13" lengthAdjust="spacing" textLength="71" x="118.5" y="797.7153">notification</text><text fill="#000000" font-family="sans-serif" font-size="13" lengthAdjust="spacing" textLength="59" x="118.5" y="812.8481">message</text><path d="M80,840.9141 L290,840.9141 L290,847.9141 L280,857.9141 L80,857.9141 L80,840.9141 " fill="#EEEEEE" style="stroke:#000000;stroke-width:1.0;"/><rect fill="none" height="75.3984" style="stroke:#000000;stroke-width:2.0;" width="748" x="80" y="840.9141"/><text fill="#000000" font-family="sans-serif" font-size="13" font-weight="bold" lengthAdjust="spacing" textLength="165" x="95" y="853.981">New rules were found</text><polygon fill="#A80036" points="684,875.1797,694,879.1797,684,883.1797,688,879.1797" style="stroke:#A80036;stroke-width:1.0;"/><line style="stroke:#A80036;stroke-width:1.0;" x1="184.5" x2="690" y1="879.1797" y2="879.1797"/><text fill="#000000" font-family="sans-serif" font-size="13" lengthAdjust="spacing" textLength="181" x="191.5" y="874.1138">notify(notification message)</text><polygon fill="#A80036" points="195.5,904.3125,185.5,908.3125,195.5,912.3125,191.5,908.3125" style="stroke:#A80036;stroke-width:1.0;"/><line style="stroke:#A80036;stroke-width:1.0;stroke-dasharray:2.0,2.0;" x1="189.5" x2="700" y1="908.3125" y2="908.3125"/><text fill="#000000" font-family="sans-serif" font-size="13" lengthAdjust="spacing" textLength="59" x="201.5" y="903.2466">accepted</text><!--MD5=[dd11e35342603cfaba859efa7265366c]
@startuml
participant Timer
participant "ccx-notification-service"
participant "Notification\ndatabase"
participant "Kafka topic\nplatform.notifications.ingress"

note over Timer : CRON rule
note over "ccx-notification-service" : CRON job configured and\ndeployed to OpenShift
note over "Notification\ndatabase" : AWS RDS\nor regular PostgreSQL
note over "Kafka topic\nplatform.notifications.ingress" : Notification\nservice gateway
Timer -> "ccx-notification-service" : notify(tick)
"ccx-notification-service" -> "Notification\ndatabase" : request(read list of new results)
activate "Notification\ndatabase"
"ccx-notification-service" <- - "Notification\ndatabase": list of new results
deactivate "Notification\ndatabase"
loop iterate over all new results
"ccx-notification-service" -> "Notification\ndatabase" : request(read new result, cluster UUID)
activate "Notification\ndatabase"
"ccx-notification-service" <- - "Notification\ndatabase": here are new result for cluster UUID
deactivate "Notification\ndatabase"
"ccx-notification-service" -> "Notification\ndatabase" : request(read reported result, cluster UUID)
activate "Notification\ndatabase"
"ccx-notification-service" <- - "Notification\ndatabase": here are already reported result for cluster UUID
deactivate "Notification\ndatabase"
"ccx-notification-service" -> "ccx-notification-service" : find_differences(reported result, new result)
activate "ccx-notification-service"
"ccx-notification-service" <- - "ccx-notification-service": new rules
deactivate "ccx-notification-service"
"ccx-notification-service" -> "ccx-notification-service" : filter(new rules, total_risk_threshold)
activate "ccx-notification-service"
note over "ccx-notification-service" : currently any new rule\nwith any total risk is reported
"ccx-notification-service" <- - "ccx-notification-service": filtered\nnew rules
deactivate "ccx-notification-service"
"ccx-notification-service" -> "ccx-notification-service" : prepare_notification_message(filtered new rules)
activate "ccx-notification-service"
"ccx-notification-service" <- - "ccx-notification-service": notification\nmessage
deactivate "ccx-notification-service"
group New rules were found
"ccx-notification-service" -> "Kafka topic\nplatform.notifications.ingress" : notify(notification message)
activate "Kafka topic\nplatform.notifications.ingress"
"ccx-notification-service" <- - "Kafka topic\nplatform.notifications.ingress": accepted
deactivate "Kafka topic\nplatform.notifications.ingress"
end
end
@enduml

PlantUML version 1.2021.9beta2(Unknown compile time)
(GPL source distribution)
Java Runtime: Java(TM) SE Runtime Environment
JVM: Java HotSpot(TM) 64-Bit Server VM
Default Encoding: UTF-8
Language: en
Country: US
--></g></svg>