<?xml version="1.0" encoding="UTF-8" standalone="no"?><svg xmlns="http://www.w3.org/2000/svg" xmlns:xlink="http://www.w3.org/1999/xlink" contentScriptType="application/ecmascript" contentStyleType="text/css" height="1181px" preserveAspectRatio="none" style="width:2062px;height:1181px;background:#FFFFFF;" version="1.1" viewBox="0 0 2062 1181" width="2062px" zoomAndPan="magnify"><defs><filter height="300%" id="fgoh4sk5rssi3" width="300%" x="-1" y="-1"><feGaussianBlur result="blurOut" stdDeviation="2.0"/><feColorMatrix in="blurOut" result="blurOut2" type="matrix" values="0 0 0 0 0 0 0 0 0 0 0 0 0 0 0 0 0 0 .4 0"/><feOffset dx="4.0" dy="4.0" in="blurOut2" result="blurOut3"/><feBlend in="SourceGraphic" in2="blurOut3" mode="normal"/></filter></defs><g><rect fill="#FFFFFF" filter="url(#fgoh4sk5rssi3)" height="203.9297" style="stroke:#A80036;stroke-width:1.0;" width="10" x="180.5" y="87.7266"/><rect fill="#FFFFFF" filter="url(#fgoh4sk5rssi3)" height="87.3984" style="stroke:#A80036;stroke-width:1.0;" width="10" x="399.5" y="116.8594"/><rect fill="#FFFFFF" filter="url(#fgoh4sk5rssi3)" height="29.1328" style="stroke:#A80036;stroke-width:1.0;" width="10" x="608.5" y="145.9922"/><rect fill="#FFFFFF" filter="url(#fgoh4sk5rssi3)" height="29.1328" style="stroke:#A80036;stroke-width:1.0;" width="10" x="608.5" y="403.1875"/><rect fill="#FFFFFF" filter="url(#fgoh4sk5rssi3)" height="29.1328" style="stroke:#A80036;stroke-width:1.0;" width="10" x="757" y="233.3906"/><rect fill="#FFFFFF" filter="url(#fgoh4sk5rssi3)" height="29.1328" style="stroke:#A80036;stroke-width:1.0;" width="10" x="757" y="344.9219"/><rect fill="#FFFFFF" filter="url(#fgoh4sk5rssi3)" height="40.1328" style="stroke:#A80036;stroke-width:1.0;" width="10" x="944" y="469.4531"/><rect fill="#FFFFFF" filter="url(#fgoh4sk5rssi3)" height="29.1328" style="stroke:#A80036;stroke-width:1.0;" width="10" x="1099" y="545.7188"/><rect fill="#FFFFFF" filter="url(#fgoh4sk5rssi3)" height="29.1328" style="stroke:#A80036;stroke-width:1.0;" width="10" x="1099" y="635.1172"/><rect fill="#FFFFFF" filter="url(#fgoh4sk5rssi3)" height="40.1328" style="stroke:#A80036;stroke-width:1.0;" width="10" x="1263" y="701.3828"/><rect fill="#FFFFFF" filter="url(#fgoh4sk5rssi3)" height="29.1328" style="stroke:#A80036;stroke-width:1.0;" width="10" x="1415" y="777.6484"/><rect fill="#FFFFFF" filter="url(#fgoh4sk5rssi3)" height="29.1328" style="stroke:#A80036;stroke-width:1.0;" width="10" x="1415" y="867.0469"/><rect fill="#FFFFFF" filter="url(#fgoh4sk5rssi3)" height="29.1328" style="stroke:#A80036;stroke-width:1.0;" width="10" x="1415" y="925.3125"/><rect fill="#FFFFFF" filter="url(#fgoh4sk5rssi3)" height="40.1328" style="stroke:#A80036;stroke-width:1.0;" width="10" x="1656" y="991.5781"/><rect fill="#FFFFFF" filter="url(#fgoh4sk5rssi3)" height="29.1328" style="stroke:#A80036;stroke-width:1.0;" width="10" x="1916" y="1067.8438"/><rect fill="#FFFFFF" filter="url(#fgoh4sk5rssi3)" height="276.1953" style="stroke:#000000;stroke-width:2.0;" width="619.5" x="558" y="306.6563"/><rect fill="#FFFFFF" filter="url(#fgoh4sk5rssi3)" height="217.9297" style="stroke:#000000;stroke-width:2.0;" width="451" x="1030.5" y="596.8516"/><rect fill="#FFFFFF" filter="url(#fgoh4sk5rssi3)" height="276.1953" style="stroke:#000000;stroke-width:2.0;" width="689.5" x="1358.5" y="828.7813"/><line style="stroke:#A80036;stroke-width:1.0;stroke-dasharray:5.0,5.0;" x1="39" x2="39" y1="56.5938" y2="1121.9766"/><line style="stroke:#A80036;stroke-width:1.0;stroke-dasharray:5.0,5.0;" x1="185" x2="185" y1="56.5938" y2="1121.9766"/><line style="stroke:#A80036;stroke-width:1.0;stroke-dasharray:5.0,5.0;" x1="404.5" x2="404.5" y1="56.5938" y2="1121.9766"/><line style="stroke:#A80036;stroke-width:1.0;stroke-dasharray:5.0,5.0;" x1="613" x2="613" y1="56.5938" y2="1121.9766"/><line style="stroke:#A80036;stroke-width:1.0;stroke-dasharray:5.0,5.0;" x1="762" x2="762" y1="56.5938" y2="1121.9766"/><line style="stroke:#A80036;stroke-width:1.0;stroke-dasharray:5.0,5.0;" x1="948.5" x2="948.5" y1="56.5938" y2="1121.9766"/><line style="stroke:#A80036;stroke-width:1.0;stroke-dasharray:5.0,5.0;" x1="1103.5" x2="1103.5" y1="56.5938" y2="1121.9766"/><line style="stroke:#A80036;stroke-width:1.0;stroke-dasharray:5.0,5.0;" x1="1267.5" x2="1267.5" y1="56.5938" y2="1121.9766"/><line style="stroke:#A80036;stroke-width:1.0;stroke-dasharray:5.0,5.0;" x1="1419.5" x2="1419.5" y1="56.5938" y2="1121.9766"/><line style="stroke:#A80036;stroke-width:1.0;stroke-dasharray:5.0,5.0;" x1="1660.5" x2="1660.5" y1="56.5938" y2="1121.9766"/><line style="stroke:#A80036;stroke-width:1.0;stroke-dasharray:5.0,5.0;" x1="1921" x2="1921" y1="56.5938" y2="1121.9766"/><rect fill="#FEFECE" filter="url(#fgoh4sk5rssi3)" height="30.2969" style="stroke:#A80036;stroke-width:1.5;" width="65" x="5" y="21.2969"/><text fill="#000000" font-family="sans-serif" font-size="14" lengthAdjust="spacing" textLength="51" x="12" y="41.292">Cluster</text><rect fill="#FEFECE" filter="url(#fgoh4sk5rssi3)" height="30.2969" style="stroke:#A80036;stroke-width:1.5;" width="65" x="5" y="1120.9766"/><text fill="#000000" font-family="sans-serif" font-size="14" lengthAdjust="spacing" textLength="51" x="12" y="1140.9717">Cluster</text><rect fill="#FEFECE" filter="url(#fgoh4sk5rssi3)" height="46.5938" style="stroke:#A80036;stroke-width:1.5;" width="65" x="151" y="5"/><text fill="#000000" font-family="sans-serif" font-size="14" lengthAdjust="spacing" textLength="51" x="158" y="24.9951">Ingress</text><text fill="#000000" font-family="sans-serif" font-size="14" lengthAdjust="spacing" textLength="51" x="158" y="41.292">service</text><rect fill="#FEFECE" filter="url(#fgoh4sk5rssi3)" height="46.5938" style="stroke:#A80036;stroke-width:1.5;" width="65" x="151" y="1120.9766"/><text fill="#000000" font-family="sans-serif" font-size="14" lengthAdjust="spacing" textLength="51" x="158" y="1140.9717">Ingress</text><text fill="#000000" font-family="sans-serif" font-size="14" lengthAdjust="spacing" textLength="51" x="158" y="1157.2686">service</text><rect fill="#FEFECE" filter="url(#fgoh4sk5rssi3)" height="46.5938" style="stroke:#A80036;stroke-width:1.5;" width="186" x="309.5" y="5"/><text fill="#000000" font-family="sans-serif" font-size="14" lengthAdjust="spacing" textLength="172" x="316.5" y="24.9951">Insights-storage-broker</text><text fill="#000000" font-family="sans-serif" font-size="14" lengthAdjust="spacing" textLength="51" x="377" y="41.292">service</text><rect fill="#FEFECE" filter="url(#fgoh4sk5rssi3)" height="46.5938" style="stroke:#A80036;stroke-width:1.5;" width="186" x="309.5" y="1120.9766"/><text fill="#000000" font-family="sans-serif" font-size="14" lengthAdjust="spacing" textLength="172" x="316.5" y="1140.9717">Insights-storage-broker</text><text fill="#000000" font-family="sans-serif" font-size="14" lengthAdjust="spacing" textLength="51" x="377" y="1157.2686">service</text><rect fill="#FEFECE" filter="url(#fgoh4sk5rssi3)" height="30.2969" style="stroke:#A80036;stroke-width:1.5;" width="87" x="568" y="21.2969"/><text fill="#000000" font-family="sans-serif" font-size="14" lengthAdjust="spacing" textLength="73" x="575" y="41.292">S3 bucket</text><rect fill="#FEFECE" filter="url(#fgoh4sk5rssi3)" height="30.2969" style="stroke:#A80036;stroke-width:1.5;" width="87" x="568" y="1120.9766"/><text fill="#000000" font-family="sans-serif" font-size="14" lengthAdjust="spacing" textLength="73" x="575" y="1140.9717">S3 bucket</text><rect fill="#FEFECE" filter="url(#fgoh4sk5rssi3)" height="46.5938" style="stroke:#A80036;stroke-width:1.5;" width="182" x="669" y="5"/><text fill="#000000" font-family="sans-serif" font-size="14" lengthAdjust="spacing" textLength="83" x="718.5" y="24.9951">Kafka topic</text><text fill="#000000" font-family="sans-serif" font-size="14" lengthAdjust="spacing" textLength="168" x="676" y="41.292">platform.upload.announce</text><rect fill="#FEFECE" filter="url(#fgoh4sk5rssi3)" height="46.5938" style="stroke:#A80036;stroke-width:1.5;" width="182" x="669" y="1120.9766"/><text fill="#000000" font-family="sans-serif" font-size="14" lengthAdjust="spacing" textLength="83" x="718.5" y="1140.9717">Kafka topic</text><text fill="#000000" font-family="sans-serif" font-size="14" lengthAdjust="spacing" textLength="168" x="676" y="1157.2686">platform.upload.announce</text><rect fill="#FEFECE" filter="url(#fgoh4sk5rssi3)" height="46.5938" style="stroke:#A80036;stroke-width:1.5;" width="141" x="876.5" y="5"/><text fill="#000000" font-family="sans-serif" font-size="14" lengthAdjust="spacing" textLength="127" x="883.5" y="24.9951">ccx-data-pipeline</text><text fill="#000000" font-family="sans-serif" font-size="14" lengthAdjust="spacing" textLength="51" x="921.5" y="41.292">service</text><rect fill="#FEFECE" filter="url(#fgoh4sk5rssi3)" height="46.5938" style="stroke:#A80036;stroke-width:1.5;" width="141" x="876.5" y="1120.9766"/><text fill="#000000" font-family="sans-serif" font-size="14" lengthAdjust="spacing" textLength="127" x="883.5" y="1140.9717">ccx-data-pipeline</text><text fill="#000000" font-family="sans-serif" font-size="14" lengthAdjust="spacing" textLength="51" x="921.5" y="1157.2686">service</text><rect fill="#FEFECE" filter="url(#fgoh4sk5rssi3)" height="46.5938" style="stroke:#A80036;stroke-width:1.5;" width="123" x="1040.5" y="5"/><text fill="#000000" font-family="sans-serif" font-size="14" lengthAdjust="spacing" textLength="83" x="1060.5" y="24.9951">Kafka topic</text><text fill="#000000" font-family="sans-serif" font-size="14" lengthAdjust="spacing" textLength="109" x="1047.5" y="41.292">ccx.ocp.results</text><rect fill="#FEFECE" filter="url(#fgoh4sk5rssi3)" height="46.5938" style="stroke:#A80036;stroke-width:1.5;" width="123" x="1040.5" y="1120.9766"/><text fill="#000000" font-family="sans-serif" font-size="14" lengthAdjust="spacing" textLength="83" x="1060.5" y="1140.9717">Kafka topic</text><text fill="#000000" font-family="sans-serif" font-size="14" lengthAdjust="spacing" textLength="109" x="1047.5" y="1157.2686">ccx.ocp.results</text><rect fill="#FEFECE" filter="url(#fgoh4sk5rssi3)" height="46.5938" style="stroke:#A80036;stroke-width:1.5;" width="177" x="1177.5" y="5"/><text fill="#000000" font-family="sans-serif" font-size="14" lengthAdjust="spacing" textLength="163" x="1184.5" y="24.9951">ccx-notification-writer</text><text fill="#000000" font-family="sans-serif" font-size="14" lengthAdjust="spacing" textLength="51" x="1240.5" y="41.292">service</text><rect fill="#FEFECE" filter="url(#fgoh4sk5rssi3)" height="46.5938" style="stroke:#A80036;stroke-width:1.5;" width="177" x="1177.5" y="1120.9766"/><text fill="#000000" font-family="sans-serif" font-size="14" lengthAdjust="spacing" textLength="163" x="1184.5" y="1140.9717">ccx-notification-writer</text><text fill="#000000" font-family="sans-serif" font-size="14" lengthAdjust="spacing" textLength="51" x="1240.5" y="1157.2686">service</text><rect fill="#FEFECE" filter="url(#fgoh4sk5rssi3)" height="46.5938" style="stroke:#A80036;stroke-width:1.5;" width="99" x="1368.5" y="5"/><text fill="#000000" font-family="sans-serif" font-size="14" lengthAdjust="spacing" textLength="85" x="1375.5" y="24.9951">Notification</text><text fill="#000000" font-family="sans-serif" font-size="14" lengthAdjust="spacing" textLength="66" x="1385" y="41.292">database</text><rect fill="#FEFECE" filter="url(#fgoh4sk5rssi3)" height="46.5938" style="stroke:#A80036;stroke-width:1.5;" width="99" x="1368.5" y="1120.9766"/><text fill="#000000" font-family="sans-serif" font-size="14" lengthAdjust="spacing" textLength="85" x="1375.5" y="1140.9717">Notification</text><text fill="#000000" font-family="sans-serif" font-size="14" lengthAdjust="spacing" textLength="66" x="1385" y="1157.2686">database</text><rect fill="#FEFECE" filter="url(#fgoh4sk5rssi3)" height="30.2969" style="stroke:#A80036;stroke-width:1.5;" width="185" x="1566.5" y="21.2969"/><text fill="#000000" font-family="sans-serif" font-size="14" lengthAdjust="spacing" textLength="171" x="1573.5" y="41.292">ccx-notification-service</text><rect fill="#FEFECE" filter="url(#fgoh4sk5rssi3)" height="30.2969" style="stroke:#A80036;stroke-width:1.5;" width="185" x="1566.5" y="1120.9766"/><text fill="#000000" font-family="sans-serif" font-size="14" lengthAdjust="spacing" textLength="171" x="1573.5" y="1140.9717">ccx-notification-service</text><rect fill="#FEFECE" filter="url(#fgoh4sk5rssi3)" height="46.5938" style="stroke:#A80036;stroke-width:1.5;" width="230" x="1804" y="5"/><text fill="#000000" font-family="sans-serif" font-size="14" lengthAdjust="spacing" textLength="83" x="1877.5" y="24.9951">Kafka topic</text><text fill="#000000" font-family="sans-serif" font-size="14" lengthAdjust="spacing" textLength="216" x="1811" y="41.292">platform.notifications.ingress</text><rect fill="#FEFECE" filter="url(#fgoh4sk5rssi3)" height="46.5938" style="stroke:#A80036;stroke-width:1.5;" width="230" x="1804" y="1120.9766"/><text fill="#000000" font-family="sans-serif" font-size="14" lengthAdjust="spacing" textLength="83" x="1877.5" y="1140.9717">Kafka topic</text><text fill="#000000" font-family="sans-serif" font-size="14" lengthAdjust="spacing" textLength="216" x="1811" y="1157.2686">platform.notifications.ingress</text><rect fill="#FFFFFF" filter="url(#fgoh4sk5rssi3)" height="203.9297" style="stroke:#A80036;stroke-width:1.0;" width="10" x="180.5" y="87.7266"/><rect fill="#FFFFFF" filter="url(#fgoh4sk5rssi3)" height="87.3984" style="stroke:#A80036;stroke-width:1.0;" width="10" x="399.5" y="116.8594"/><rect fill="#FFFFFF" filter="url(#fgoh4sk5rssi3)" height="29.1328" style="stroke:#A80036;stroke-width:1.0;" width="10" x="608.5" y="145.9922"/><rect fill="#FFFFFF" filter="url(#fgoh4sk5rssi3)" height="29.1328" style="stroke:#A80036;stroke-width:1.0;" width="10" x="608.5" y="403.1875"/><rect fill="#FFFFFF" filter="url(#fgoh4sk5rssi3)" height="29.1328" style="stroke:#A80036;stroke-width:1.0;" width="10" x="757" y="233.3906"/><rect fill="#FFFFFF" filter="url(#fgoh4sk5rssi3)" height="29.1328" style="stroke:#A80036;stroke-width:1.0;" width="10" x="757" y="344.9219"/><rect fill="#FFFFFF" filter="url(#fgoh4sk5rssi3)" height="40.1328" style="stroke:#A80036;stroke-width:1.0;" width="10" x="944" y="469.4531"/><rect fill="#FFFFFF" filter="url(#fgoh4sk5rssi3)" height="29.1328" style="stroke:#A80036;stroke-width:1.0;" width="10" x="1099" y="545.7188"/><rect fill="#FFFFFF" filter="url(#fgoh4sk5rssi3)" height="29.1328" style="stroke:#A80036;stroke-width:1.0;" width="10" x="1099" y="635.1172"/><rect fill="#FFFFFF" filter="url(#fgoh4sk5rssi3)" height="40.1328" style="stroke:#A80036;stroke-width:1.0;" width="10" x="1263" y="701.3828"/><rect fill="#FFFFFF" filter="url(#fgoh4sk5rssi3)" height="29.1328" style="stroke:#A80036;stroke-width:1.0;" width="10" x="1415" y="777.6484"/><rect fill="#FFFFFF" filter="url(#fgoh4sk5rssi3)" height="29.1328" style="stroke:#A80036;stroke-width:1.0;" width="10" x="1415" y="867.0469"/><rect fill="#FFFFFF" filter="url(#fgoh4sk5rssi3)" height="29.1328" style="stroke:#A80036;stroke-width:1.0;" width="10" x="1415" y="925.3125"/><rect fill="#FFFFFF" filter="url(#fgoh4sk5rssi3)" height="40.1328" style="stroke:#A80036;stroke-width:1.0;" width="10" x="1656" y="991.5781"/><rect fill="#FFFFFF" filter="url(#fgoh4sk5rssi3)" height="29.1328" style="stroke:#A80036;stroke-width:1.0;" width="10" x="1916" y="1067.8438"/><polygon fill="#A80036" points="168.5,83.7266,178.5,87.7266,168.5,91.7266,172.5,87.7266" style="stroke:#A80036;stroke-width:1.0;"/><line style="stroke:#A80036;stroke-width:1.0;" x1="39.5" x2="174.5" y1="87.7266" y2="87.7266"/><text fill="#000000" font-family="sans-serif" font-size="13" lengthAdjust="spacing" textLength="122" x="46.5" y="82.6606">send(data from IO)</text><polygon fill="#A80036" points="387.5,112.8594,397.5,116.8594,387.5,120.8594,391.5,116.8594" style="stroke:#A80036;stroke-width:1.0;"/><line style="stroke:#A80036;stroke-width:1.0;" x1="190.5" x2="393.5" y1="116.8594" y2="116.8594"/><text fill="#000000" font-family="sans-serif" font-size="13" lengthAdjust="spacing" textLength="122" x="197.5" y="111.7935">send(data from IO)</text><polygon fill="#A80036" points="596.5,141.9922,606.5,145.9922,596.5,149.9922,600.5,145.9922" style="stroke:#A80036;stroke-width:1.0;"/><line style="stroke:#A80036;stroke-width:1.0;" x1="409.5" x2="602.5" y1="145.9922" y2="145.9922"/><text fill="#000000" font-family="sans-serif" font-size="13" lengthAdjust="spacing" textLength="124" x="416.5" y="140.9263">store(data from IO)</text><polygon fill="#A80036" points="420.5,171.125,410.5,175.125,420.5,179.125,416.5,175.125" style="stroke:#A80036;stroke-width:1.0;"/><line style="stroke:#A80036;stroke-width:1.0;stroke-dasharray:2.0,2.0;" x1="414.5" x2="612.5" y1="175.125" y2="175.125"/><text fill="#000000" font-family="sans-serif" font-size="13" lengthAdjust="spacing" textLength="175" x="426.5" y="170.0591">stored, path to object=XYZ</text><polygon fill="#A80036" points="201.5,200.2578,191.5,204.2578,201.5,208.2578,197.5,204.2578" style="stroke:#A80036;stroke-width:1.0;"/><line style="stroke:#A80036;stroke-width:1.0;stroke-dasharray:2.0,2.0;" x1="195.5" x2="403.5" y1="204.2578" y2="204.2578"/><text fill="#000000" font-family="sans-serif" font-size="13" lengthAdjust="spacing" textLength="185" x="207.5" y="199.1919">success, path to object=XYZ</text><polygon fill="#A80036" points="745,229.3906,755,233.3906,745,237.3906,749,233.3906" style="stroke:#A80036;stroke-width:1.0;"/><line style="stroke:#A80036;stroke-width:1.0;" x1="190.5" x2="751" y1="233.3906" y2="233.3906"/><text fill="#000000" font-family="sans-serif" font-size="13" lengthAdjust="spacing" textLength="288" x="197.5" y="228.3247">produce(new data, cluster=UUID, path=XYZ)</text><polygon fill="#A80036" points="201.5,258.5234,191.5,262.5234,201.5,266.5234,197.5,262.5234" style="stroke:#A80036;stroke-width:1.0;"/><line style="stroke:#A80036;stroke-width:1.0;stroke-dasharray:2.0,2.0;" x1="195.5" x2="761" y1="262.5234" y2="262.5234"/><text fill="#000000" font-family="sans-serif" font-size="13" lengthAdjust="spacing" textLength="41" x="207.5" y="257.4575">stored</text><polygon fill="#A80036" points="50.5,287.6563,40.5,291.6563,50.5,295.6563,46.5,291.6563" style="stroke:#A80036;stroke-width:1.0;"/><line style="stroke:#A80036;stroke-width:1.0;stroke-dasharray:2.0,2.0;" x1="44.5" x2="184.5" y1="291.6563" y2="291.6563"/><text fill="#000000" font-family="sans-serif" font-size="13" lengthAdjust="spacing" textLength="43" x="56.5" y="286.5903">accept</text><path d="M558,306.6563 L636,306.6563 L636,313.6563 L626,323.6563 L558,323.6563 L558,306.6563 " fill="#EEEEEE" style="stroke:#000000;stroke-width:1.0;"/><rect fill="none" height="276.1953" style="stroke:#000000;stroke-width:2.0;" width="619.5" x="558" y="306.6563"/><text fill="#000000" font-family="sans-serif" font-size="13" font-weight="bold" lengthAdjust="spacing" textLength="33" x="573" y="319.7231">loop</text><polygon fill="#A80036" points="778,340.9219,768,344.9219,778,348.9219,774,344.9219" style="stroke:#A80036;stroke-width:1.0;"/><line style="stroke:#A80036;stroke-width:1.0;" x1="772" x2="948" y1="344.9219" y2="344.9219"/><text fill="#000000" font-family="sans-serif" font-size="13" lengthAdjust="spacing" textLength="143" x="784" y="339.856">request(get message)</text><polygon fill="#A80036" points="937,370.0547,947,374.0547,937,378.0547,941,374.0547" style="stroke:#A80036;stroke-width:1.0;"/><line style="stroke:#A80036;stroke-width:1.0;stroke-dasharray:2.0,2.0;" x1="762" x2="943" y1="374.0547" y2="374.0547"/><text fill="#000000" font-family="sans-serif" font-size="13" lengthAdjust="spacing" textLength="158" x="769" y="368.9888">cluster=UUID, path=XYZ</text><polygon fill="#A80036" points="629.5,399.1875,619.5,403.1875,629.5,407.1875,625.5,403.1875" style="stroke:#A80036;stroke-width:1.0;"/><line style="stroke:#A80036;stroke-width:1.0;" x1="623.5" x2="948" y1="403.1875" y2="403.1875"/><text fill="#000000" font-family="sans-serif" font-size="13" lengthAdjust="spacing" textLength="151" x="635.5" y="398.1216">read_object(path=XYZ)</text><polygon fill="#A80036" points="937,428.3203,947,432.3203,937,436.3203,941,432.3203" style="stroke:#A80036;stroke-width:1.0;"/><line style="stroke:#A80036;stroke-width:1.0;stroke-dasharray:2.0,2.0;" x1="613.5" x2="943" y1="432.3203" y2="432.3203"/><text fill="#000000" font-family="sans-serif" font-size="13" lengthAdjust="spacing" textLength="81" x="620.5" y="427.2544">data from IO</text><line style="stroke:#A80036;stroke-width:1.0;" x1="949" x2="996" y1="456.4531" y2="456.4531"/><line style="stroke:#A80036;stroke-width:1.0;" x1="996" x2="996" y1="456.4531" y2="469.4531"/><line style="stroke:#A80036;stroke-width:1.0;" x1="955" x2="996" y1="469.4531" y2="469.4531"/><polygon fill="#A80036" points="965,465.4531,955,469.4531,965,473.4531,961,469.4531" style="stroke:#A80036;stroke-width:1.0;"/><text fill="#000000" font-family="sans-serif" font-size="13" lengthAdjust="spacing" textLength="141" x="961" y="451.3872">process(data from IO)</text><line style="stroke:#A80036;stroke-width:1.0;stroke-dasharray:2.0,2.0;" x1="912" x2="954" y1="508.5859" y2="508.5859"/><line style="stroke:#A80036;stroke-width:1.0;stroke-dasharray:2.0,2.0;" x1="912" x2="912" y1="508.5859" y2="521.5859"/><line style="stroke:#A80036;stroke-width:1.0;stroke-dasharray:2.0,2.0;" x1="912" x2="959" y1="521.5859" y2="521.5859"/><polygon fill="#A80036" points="939,517.5859,949,521.5859,939,525.5859,943,521.5859" style="stroke:#A80036;stroke-width:1.0;"/><text fill="#000000" font-family="sans-serif" font-size="13" lengthAdjust="spacing" textLength="71" x="883" y="503.52">rule results</text><polygon fill="#A80036" points="1087,541.7188,1097,545.7188,1087,549.7188,1091,545.7188" style="stroke:#A80036;stroke-width:1.0;"/><line style="stroke:#A80036;stroke-width:1.0;" x1="949" x2="1093" y1="545.7188" y2="545.7188"/><text fill="#000000" font-family="sans-serif" font-size="13" lengthAdjust="spacing" textLength="114" x="956" y="540.6528">store(rule results)</text><polygon fill="#A80036" points="960,570.8516,950,574.8516,960,578.8516,956,574.8516" style="stroke:#A80036;stroke-width:1.0;"/><line style="stroke:#A80036;stroke-width:1.0;stroke-dasharray:2.0,2.0;" x1="954" x2="1103" y1="574.8516" y2="574.8516"/><text fill="#000000" font-family="sans-serif" font-size="13" lengthAdjust="spacing" textLength="41" x="966" y="569.7856">stored</text><path d="M1030.5,596.8516 L1108.5,596.8516 L1108.5,603.8516 L1098.5,613.8516 L1030.5,613.8516 L1030.5,596.8516 " fill="#EEEEEE" style="stroke:#000000;stroke-width:1.0;"/><rect fill="none" height="217.9297" style="stroke:#000000;stroke-width:2.0;" width="451" x="1030.5" y="596.8516"/><text fill="#000000" font-family="sans-serif" font-size="13" font-weight="bold" lengthAdjust="spacing" textLength="33" x="1045.5" y="609.9185">loop</text><polygon fill="#A80036" points="1120,631.1172,1110,635.1172,1120,639.1172,1116,635.1172" style="stroke:#A80036;stroke-width:1.0;"/><line style="stroke:#A80036;stroke-width:1.0;" x1="1114" x2="1267" y1="635.1172" y2="635.1172"/><text fill="#000000" font-family="sans-serif" font-size="13" lengthAdjust="spacing" textLength="127" x="1126" y="630.0513">request(get results)</text><polygon fill="#A80036" points="1256,660.25,1266,664.25,1256,668.25,1260,664.25" style="stroke:#A80036;stroke-width:1.0;"/><line style="stroke:#A80036;stroke-width:1.0;stroke-dasharray:2.0,2.0;" x1="1104" x2="1262" y1="664.25" y2="664.25"/><text fill="#000000" font-family="sans-serif" font-size="13" lengthAdjust="spacing" textLength="129" x="1111" y="659.1841">here are rule results</text><line style="stroke:#A80036;stroke-width:1.0;" x1="1268" x2="1315" y1="688.3828" y2="688.3828"/><line style="stroke:#A80036;stroke-width:1.0;" x1="1315" x2="1315" y1="688.3828" y2="701.3828"/><line style="stroke:#A80036;stroke-width:1.0;" x1="1274" x2="1315" y1="701.3828" y2="701.3828"/><polygon fill="#A80036" points="1284,697.3828,1274,701.3828,1284,705.3828,1280,701.3828" style="stroke:#A80036;stroke-width:1.0;"/><text fill="#000000" font-family="sans-serif" font-size="13" lengthAdjust="spacing" textLength="127" x="1280" y="683.3169">validate(rule resuls)</text><line style="stroke:#A80036;stroke-width:1.0;stroke-dasharray:2.0,2.0;" x1="1231" x2="1273" y1="740.5156" y2="740.5156"/><line style="stroke:#A80036;stroke-width:1.0;stroke-dasharray:2.0,2.0;" x1="1231" x2="1231" y1="740.5156" y2="753.5156"/><line style="stroke:#A80036;stroke-width:1.0;stroke-dasharray:2.0,2.0;" x1="1231" x2="1278" y1="753.5156" y2="753.5156"/><polygon fill="#A80036" points="1258,749.5156,1268,753.5156,1258,757.5156,1262,753.5156" style="stroke:#A80036;stroke-width:1.0;"/><text fill="#000000" font-family="sans-serif" font-size="13" lengthAdjust="spacing" textLength="59" x="1214" y="735.4497">validated</text><polygon fill="#A80036" points="1403,773.6484,1413,777.6484,1403,781.6484,1407,777.6484" style="stroke:#A80036;stroke-width:1.0;"/><line style="stroke:#A80036;stroke-width:1.0;" x1="1268" x2="1409" y1="777.6484" y2="777.6484"/><text fill="#000000" font-family="sans-serif" font-size="13" lengthAdjust="spacing" textLength="114" x="1275" y="772.5825">store(rule results)</text><polygon fill="#A80036" points="1279,802.7813,1269,806.7813,1279,810.7813,1275,806.7813" style="stroke:#A80036;stroke-width:1.0;"/><line style="stroke:#A80036;stroke-width:1.0;stroke-dasharray:2.0,2.0;" x1="1273" x2="1419" y1="806.7813" y2="806.7813"/><text fill="#000000" font-family="sans-serif" font-size="13" lengthAdjust="spacing" textLength="41" x="1285" y="801.7153">stored</text><path d="M1358.5,828.7813 L1436.5,828.7813 L1436.5,835.7813 L1426.5,845.7813 L1358.5,845.7813 L1358.5,828.7813 " fill="#EEEEEE" style="stroke:#000000;stroke-width:1.0;"/><rect fill="none" height="276.1953" style="stroke:#000000;stroke-width:2.0;" width="689.5" x="1358.5" y="828.7813"/><text fill="#000000" font-family="sans-serif" font-size="13" font-weight="bold" lengthAdjust="spacing" textLength="33" x="1373.5" y="841.8481">loop</text><polygon fill="#A80036" points="1436,863.0469,1426,867.0469,1436,871.0469,1432,867.0469" style="stroke:#A80036;stroke-width:1.0;"/><line style="stroke:#A80036;stroke-width:1.0;" x1="1430" x2="1660" y1="867.0469" y2="867.0469"/><text fill="#000000" font-family="sans-serif" font-size="13" lengthAdjust="spacing" textLength="166" x="1442" y="861.981">request(read new results)</text><polygon fill="#A80036" points="1649,892.1797,1659,896.1797,1649,900.1797,1653,896.1797" style="stroke:#A80036;stroke-width:1.0;"/><line style="stroke:#A80036;stroke-width:1.0;stroke-dasharray:2.0,2.0;" x1="1420" x2="1655" y1="896.1797" y2="896.1797"/><text fill="#000000" font-family="sans-serif" font-size="13" lengthAdjust="spacing" textLength="132" x="1427" y="891.1138">here are new results</text><polygon fill="#A80036" points="1436,921.3125,1426,925.3125,1436,929.3125,1432,925.3125" style="stroke:#A80036;stroke-width:1.0;"/><line style="stroke:#A80036;stroke-width:1.0;" x1="1430" x2="1660" y1="925.3125" y2="925.3125"/><text fill="#000000" font-family="sans-serif" font-size="13" lengthAdjust="spacing" textLength="194" x="1442" y="920.2466">request(read reported results)</text><polygon fill="#A80036" points="1649,950.4453,1659,954.4453,1649,958.4453,1653,954.4453" style="stroke:#A80036;stroke-width:1.0;"/><line style="stroke:#A80036;stroke-width:1.0;stroke-dasharray:2.0,2.0;" x1="1420" x2="1655" y1="954.4453" y2="954.4453"/><text fill="#000000" font-family="sans-serif" font-size="13" lengthAdjust="spacing" textLength="212" x="1427" y="949.3794">here are already reported results</text><line style="stroke:#A80036;stroke-width:1.0;" x1="1661" x2="1708" y1="978.5781" y2="978.5781"/><line style="stroke:#A80036;stroke-width:1.0;" x1="1708" x2="1708" y1="978.5781" y2="991.5781"/><line style="stroke:#A80036;stroke-width:1.0;" x1="1667" x2="1708" y1="991.5781" y2="991.5781"/><polygon fill="#A80036" points="1677,987.5781,1667,991.5781,1677,995.5781,1673,991.5781" style="stroke:#A80036;stroke-width:1.0;"/><text fill="#000000" font-family="sans-serif" font-size="13" lengthAdjust="spacing" textLength="246" x="1673" y="973.5122">find_diff(reported results, new results)</text><line style="stroke:#A80036;stroke-width:1.0;stroke-dasharray:2.0,2.0;" x1="1624" x2="1666" y1="1030.7109" y2="1030.7109"/><line style="stroke:#A80036;stroke-width:1.0;stroke-dasharray:2.0,2.0;" x1="1624" x2="1624" y1="1030.7109" y2="1043.7109"/><line style="stroke:#A80036;stroke-width:1.0;stroke-dasharray:2.0,2.0;" x1="1624" x2="1671" y1="1043.7109" y2="1043.7109"/><polygon fill="#A80036" points="1651,1039.7109,1661,1043.7109,1651,1047.7109,1655,1043.7109" style="stroke:#A80036;stroke-width:1.0;"/><text fill="#000000" font-family="sans-serif" font-size="13" lengthAdjust="spacing" textLength="21" x="1645" y="1025.645">diff</text><polygon fill="#A80036" points="1904,1063.8438,1914,1067.8438,1904,1071.8438,1908,1067.8438" style="stroke:#A80036;stroke-width:1.0;"/><line style="stroke:#A80036;stroke-width:1.0;" x1="1661" x2="1910" y1="1067.8438" y2="1067.8438"/><text fill="#000000" font-family="sans-serif" font-size="13" lengthAdjust="spacing" textLength="124" x="1668" y="1062.7778">notify(new reports)</text><polygon fill="#A80036" points="1672,1092.9766,1662,1096.9766,1672,1100.9766,1668,1096.9766" style="stroke:#A80036;stroke-width:1.0;"/><line style="stroke:#A80036;stroke-width:1.0;stroke-dasharray:2.0,2.0;" x1="1666" x2="1920" y1="1096.9766" y2="1096.9766"/><text fill="#000000" font-family="sans-serif" font-size="13" lengthAdjust="spacing" textLength="59" x="1678" y="1091.9106">accepted</text><!--MD5=[6a2b1cfa6e559b953e2009ae47483ae9]
@startuml
participant Cluster
participant "Ingress\nservice"
participant "Insights-storage-broker\nservice"
participant "S3 bucket"
participant "Kafka topic\nplatform.upload.announce"
participant "ccx-data-pipeline\nservice"
participant "Kafka topic\nccx.ocp.results"
participant "ccx-notification-writer\nservice"
participant "Notification\ndatabase"
participant "ccx-notification-service"
participant "Kafka topic\nplatform.notifications.ingress"

Cluster -> "Ingress\nservice" : send(data from IO)
activate "Ingress\nservice"
"Ingress\nservice" -> "Insights-storage-broker\nservice" : send(data from IO)
activate "Insights-storage-broker\nservice"
"Insights-storage-broker\nservice" -> "S3 bucket" : store(data from IO)
activate "S3 bucket"
"Insights-storage-broker\nservice" <- - "S3 bucket": stored, path to object=XYZ
deactivate "S3 bucket"
"Ingress\nservice" <- - "Insights-storage-broker\nservice": success, path to object=XYZ
deactivate "Insights-storage-broker\nservice"
"Ingress\nservice" -> "Kafka topic\nplatform.upload.announce" : produce(new data, cluster=UUID, path=XYZ)
activate "Kafka topic\nplatform.upload.announce"
"Ingress\nservice" <- - "Kafka topic\nplatform.upload.announce": stored
deactivate "Kafka topic\nplatform.upload.announce"
Cluster <- - "Ingress\nservice": accept
deactivate "Ingress\nservice"
loop
"ccx-data-pipeline\nservice" -> "Kafka topic\nplatform.upload.announce" : request(get message)
activate "Kafka topic\nplatform.upload.announce"
"ccx-data-pipeline\nservice" <- - "Kafka topic\nplatform.upload.announce": cluster=UUID, path=XYZ
deactivate "Kafka topic\nplatform.upload.announce"
"ccx-data-pipeline\nservice" -> "S3 bucket" : read_object(path=XYZ)
activate "S3 bucket"
"ccx-data-pipeline\nservice" <- - "S3 bucket": data from IO
deactivate "S3 bucket"
"ccx-data-pipeline\nservice" -> "ccx-data-pipeline\nservice" : process(data from IO)
activate "ccx-data-pipeline\nservice"
"ccx-data-pipeline\nservice" <- - "ccx-data-pipeline\nservice": rule results
deactivate "ccx-data-pipeline\nservice"
"ccx-data-pipeline\nservice" -> "Kafka topic\nccx.ocp.results" : store(rule results)
activate "Kafka topic\nccx.ocp.results"
"ccx-data-pipeline\nservice" <- - "Kafka topic\nccx.ocp.results": stored
deactivate "Kafka topic\nccx.ocp.results"
end
loop
"ccx-notification-writer\nservice" -> "Kafka topic\nccx.ocp.results" : request(get results)
activate "Kafka topic\nccx.ocp.results"
"ccx-notification-writer\nservice" <- - "Kafka topic\nccx.ocp.results": here are rule results
deactivate "Kafka topic\nccx.ocp.results"
"ccx-notification-writer\nservice" -> "ccx-notification-writer\nservice" : validate(rule resuls)
activate "ccx-notification-writer\nservice"
"ccx-notification-writer\nservice" <- - "ccx-notification-writer\nservice": validated
deactivate "ccx-notification-writer\nservice"
"ccx-notification-writer\nservice" -> "Notification\ndatabase" : store(rule results)
activate "Notification\ndatabase"
"ccx-notification-writer\nservice" <- - "Notification\ndatabase": stored
deactivate "Notification\ndatabase"
end
loop
"ccx-notification-service" -> "Notification\ndatabase" : request(read new results)
activate "Notification\ndatabase"
"ccx-notification-service" <- - "Notification\ndatabase": here are new results
deactivate "Notification\ndatabase"
"ccx-notification-service" -> "Notification\ndatabase" : request(read reported results)
activate "Notification\ndatabase"
"ccx-notification-service" <- - "Notification\ndatabase": here are already reported results
deactivate "Notification\ndatabase"
"ccx-notification-service" -> "ccx-notification-service" : find_diff(reported results, new results)
activate "ccx-notification-service"
"ccx-notification-service" <- - "ccx-notification-service": diff
deactivate "ccx-notification-service"
"ccx-notification-service" -> "Kafka topic\nplatform.notifications.ingress" : notify(new reports)
activate "Kafka topic\nplatform.notifications.ingress"
"ccx-notification-service" <- - "Kafka topic\nplatform.notifications.ingress": accepted
deactivate "Kafka topic\nplatform.notifications.ingress"
end
@enduml

PlantUML version 1.2021.7(Sun May 23 12:40:07 UTC 2021)
(GPL source distribution)
Java Runtime: Java(TM) SE Runtime Environment
JVM: Java HotSpot(TM) 64-Bit Server VM
Default Encoding: UTF-8
Language: en
Country: US
--></g></svg>