<?xml version="1.0" encoding="UTF-8" standalone="no"?><svg xmlns="http://www.w3.org/2000/svg" xmlns:xlink="http://www.w3.org/1999/xlink" contentScriptType="application/ecmascript" contentStyleType="text/css" height="799px" preserveAspectRatio="none" style="width:970px;height:799px;background:#FFFFFF;" version="1.1" viewBox="0 0 970 799" width="970px" zoomAndPan="magnify"><defs><filter height="300%" id="fs6yucuvqru16" width="300%" x="-1" y="-1"><feGaussianBlur result="blurOut" stdDeviation="2.0"/><feColorMatrix in="blurOut" result="blurOut2" type="matrix" values="0 0 0 0 0 0 0 0 0 0 0 0 0 0 0 0 0 0 .4 0"/><feOffset dx="4.0" dy="4.0" in="blurOut2" result="blurOut3"/><feBlend in="SourceGraphic" in2="blurOut3" mode="normal"/></filter></defs><g><rect fill="#FFFFFF" filter="url(#fs6yucuvqru16)" height="109.5313" style="stroke:#A80036;stroke-width:1.0;" width="10" x="179.5" y="409.1875"/><rect fill="#FFFFFF" filter="url(#fs6yucuvqru16)" height="55.2656" style="stroke:#A80036;stroke-width:1.0;" width="10" x="179.5" y="586.9844"/><rect fill="#FFFFFF" filter="url(#fs6yucuvqru16)" height="29.1328" style="stroke:#A80036;stroke-width:1.0;" width="10" x="635.5" y="318.7891"/><rect fill="#FFFFFF" filter="url(#fs6yucuvqru16)" height="29.1328" style="stroke:#A80036;stroke-width:1.0;" width="10" x="814" y="678.3828"/><rect fill="#FFFFFF" filter="url(#fs6yucuvqru16)" height="359.5938" style="stroke:#000000;stroke-width:2.0;" width="920" x="36" y="362.9219"/><rect fill="#FFFFFF" filter="url(#fs6yucuvqru16)" height="174.7969" style="stroke:#000000;stroke-width:2.0;" width="866" x="80" y="540.7188"/><line style="stroke:#A80036;stroke-width:1.0;stroke-dasharray:5.0,5.0;" x1="50" x2="50" y1="56.5938" y2="739.5156"/><line style="stroke:#A80036;stroke-width:1.0;stroke-dasharray:5.0,5.0;" x1="184" x2="184" y1="56.5938" y2="739.5156"/><line style="stroke:#A80036;stroke-width:1.0;stroke-dasharray:5.0,5.0;" x1="640" x2="640" y1="56.5938" y2="739.5156"/><line style="stroke:#A80036;stroke-width:1.0;stroke-dasharray:5.0,5.0;" x1="819" x2="819" y1="56.5938" y2="739.5156"/><rect fill="#FEFECE" filter="url(#fs6yucuvqru16)" height="30.2969" style="stroke:#A80036;stroke-width:1.5;" width="56" x="20" y="21.2969"/><text fill="#000000" font-family="sans-serif" font-size="14" lengthAdjust="spacing" textLength="42" x="27" y="41.292">Timer</text><rect fill="#FEFECE" filter="url(#fs6yucuvqru16)" height="30.2969" style="stroke:#A80036;stroke-width:1.5;" width="56" x="20" y="738.5156"/><text fill="#000000" font-family="sans-serif" font-size="14" lengthAdjust="spacing" textLength="42" x="27" y="758.5107">Timer</text><rect fill="#FEFECE" filter="url(#fs6yucuvqru16)" height="30.2969" style="stroke:#A80036;stroke-width:1.5;" width="185" x="90" y="21.2969"/><text fill="#000000" font-family="sans-serif" font-size="14" lengthAdjust="spacing" textLength="171" x="97" y="41.292">ccx-notification-service</text><rect fill="#FEFECE" filter="url(#fs6yucuvqru16)" height="30.2969" style="stroke:#A80036;stroke-width:1.5;" width="185" x="90" y="738.5156"/><text fill="#000000" font-family="sans-serif" font-size="14" lengthAdjust="spacing" textLength="171" x="97" y="758.5107">ccx-notification-service</text><rect fill="#FEFECE" filter="url(#fs6yucuvqru16)" height="46.5938" style="stroke:#A80036;stroke-width:1.5;" width="99" x="589" y="5"/><text fill="#000000" font-family="sans-serif" font-size="14" lengthAdjust="spacing" textLength="85" x="596" y="24.9951">Notification</text><text fill="#000000" font-family="sans-serif" font-size="14" lengthAdjust="spacing" textLength="66" x="605.5" y="41.292">database</text><rect fill="#FEFECE" filter="url(#fs6yucuvqru16)" height="46.5938" style="stroke:#A80036;stroke-width:1.5;" width="99" x="589" y="738.5156"/><text fill="#000000" font-family="sans-serif" font-size="14" lengthAdjust="spacing" textLength="85" x="596" y="758.5107">Notification</text><text fill="#000000" font-family="sans-serif" font-size="14" lengthAdjust="spacing" textLength="66" x="605.5" y="774.8076">database</text><rect fill="#FEFECE" filter="url(#fs6yucuvqru16)" height="46.5938" style="stroke:#A80036;stroke-width:1.5;" width="230" x="702" y="5"/><text fill="#000000" font-family="sans-serif" font-size="14" lengthAdjust="spacing" textLength="83" x="775.5" y="24.9951">Kafka topic</text><text fill="#000000" font-family="sans-serif" font-size="14" lengthAdjust="spacing" textLength="216" x="709" y="41.292">platform.notifications.ingress</text><rect fill="#FEFECE" filter="url(#fs6yucuvqru16)" height="46.5938" style="stroke:#A80036;stroke-width:1.5;" width="230" x="702" y="738.5156"/><text fill="#000000" font-family="sans-serif" font-size="14" lengthAdjust="spacing" textLength="83" x="775.5" y="758.5107">Kafka topic</text><text fill="#000000" font-family="sans-serif" font-size="14" lengthAdjust="spacing" textLength="216" x="709" y="774.8076">platform.notifications.ingress</text><rect fill="#FFFFFF" filter="url(#fs6yucuvqru16)" height="109.5313" style="stroke:#A80036;stroke-width:1.0;" width="10" x="179.5" y="409.1875"/><rect fill="#FFFFFF" filter="url(#fs6yucuvqru16)" height="55.2656" style="stroke:#A80036;stroke-width:1.0;" width="10" x="179.5" y="586.9844"/><rect fill="#FFFFFF" filter="url(#fs6yucuvqru16)" height="29.1328" style="stroke:#A80036;stroke-width:1.0;" width="10" x="635.5" y="318.7891"/><rect fill="#FFFFFF" filter="url(#fs6yucuvqru16)" height="29.1328" style="stroke:#A80036;stroke-width:1.0;" width="10" x="814" y="678.3828"/><path d="M5,71.5938 L5,96.5938 L91,96.5938 L91,81.5938 L81,71.5938 L5,71.5938 " fill="#FBFB77" filter="url(#fs6yucuvqru16)" style="stroke:#A80036;stroke-width:1.0;"/><path d="M81,71.5938 L81,81.5938 L91,81.5938 L81,71.5938 " fill="#FBFB77" style="stroke:#A80036;stroke-width:1.0;"/><text fill="#000000" font-family="sans-serif" font-size="13" lengthAdjust="spacing" textLength="65" x="11" y="88.6606">CRON rule</text><path d="M92,110.7266 L92,150.7266 L273,150.7266 L273,120.7266 L263,110.7266 L92,110.7266 " fill="#FBFB77" filter="url(#fs6yucuvqru16)" style="stroke:#A80036;stroke-width:1.0;"/><path d="M263,110.7266 L263,120.7266 L273,120.7266 L263,110.7266 " fill="#FBFB77" style="stroke:#A80036;stroke-width:1.0;"/><text fill="#000000" font-family="sans-serif" font-size="13" lengthAdjust="spacing" textLength="160" x="98" y="127.7935">CRON job configured and</text><text fill="#000000" font-family="sans-serif" font-size="13" lengthAdjust="spacing" textLength="143" x="98" y="142.9263">deployed to OpenShift</text><path d="M558,164.9922 L558,204.9922 L719,204.9922 L719,174.9922 L709,164.9922 L558,164.9922 " fill="#FBFB77" filter="url(#fs6yucuvqru16)" style="stroke:#A80036;stroke-width:1.0;"/><path d="M709,164.9922 L709,174.9922 L719,174.9922 L709,164.9922 " fill="#FBFB77" style="stroke:#A80036;stroke-width:1.0;"/><text fill="#000000" font-family="sans-serif" font-size="13" lengthAdjust="spacing" textLength="61" x="564" y="182.0591">AWS RDS</text><text fill="#000000" font-family="sans-serif" font-size="13" lengthAdjust="spacing" textLength="140" x="564" y="197.1919">or regular PostgreSQL</text><path d="M753,219.2578 L753,259.2578 L880,259.2578 L880,229.2578 L870,219.2578 L753,219.2578 " fill="#FBFB77" filter="url(#fs6yucuvqru16)" style="stroke:#A80036;stroke-width:1.0;"/><path d="M870,219.2578 L870,229.2578 L880,229.2578 L870,219.2578 " fill="#FBFB77" style="stroke:#A80036;stroke-width:1.0;"/><text fill="#000000" font-family="sans-serif" font-size="13" lengthAdjust="spacing" textLength="72" x="759" y="236.3247">Notification</text><text fill="#000000" font-family="sans-serif" font-size="13" lengthAdjust="spacing" textLength="106" x="759" y="251.4575">service gateway</text><polygon fill="#A80036" points="172.5,285.6563,182.5,289.6563,172.5,293.6563,176.5,289.6563" style="stroke:#A80036;stroke-width:1.0;"/><line style="stroke:#A80036;stroke-width:1.0;" x1="50" x2="178.5" y1="289.6563" y2="289.6563"/><text fill="#000000" font-family="sans-serif" font-size="13" lengthAdjust="spacing" textLength="69" x="57" y="284.5903">notify(tick)</text><polygon fill="#A80036" points="623.5,314.7891,633.5,318.7891,623.5,322.7891,627.5,318.7891" style="stroke:#A80036;stroke-width:1.0;"/><line style="stroke:#A80036;stroke-width:1.0;" x1="184.5" x2="629.5" y1="318.7891" y2="318.7891"/><text fill="#000000" font-family="sans-serif" font-size="13" lengthAdjust="spacing" textLength="335" x="191.5" y="313.7231">request(read results, cluster UUID, -7 days to today)</text><polygon fill="#A80036" points="195.5,343.9219,185.5,347.9219,195.5,351.9219,191.5,347.9219" style="stroke:#A80036;stroke-width:1.0;"/><line style="stroke:#A80036;stroke-width:1.0;stroke-dasharray:2.0,2.0;" x1="189.5" x2="639.5" y1="347.9219" y2="347.9219"/><text fill="#000000" font-family="sans-serif" font-size="13" lengthAdjust="spacing" textLength="186" x="201.5" y="342.856">list of results for cluster UUID</text><path d="M36,362.9219 L114,362.9219 L114,369.9219 L104,379.9219 L36,379.9219 L36,362.9219 " fill="#EEEEEE" style="stroke:#000000;stroke-width:1.0;"/><rect fill="none" height="359.5938" style="stroke:#000000;stroke-width:2.0;" width="920" x="36" y="362.9219"/><text fill="#000000" font-family="sans-serif" font-size="13" font-weight="bold" lengthAdjust="spacing" textLength="33" x="51" y="375.9888">loop</text><text fill="#000000" font-family="sans-serif" font-size="11" font-weight="bold" lengthAdjust="spacing" textLength="163" x="129" y="375.1323">[iterate over all results]</text><line style="stroke:#A80036;stroke-width:1.0;" x1="184.5" x2="231.5" y1="396.1875" y2="396.1875"/><line style="stroke:#A80036;stroke-width:1.0;" x1="231.5" x2="231.5" y1="396.1875" y2="409.1875"/><line style="stroke:#A80036;stroke-width:1.0;" x1="190.5" x2="231.5" y1="409.1875" y2="409.1875"/><polygon fill="#A80036" points="200.5,405.1875,190.5,409.1875,200.5,413.1875,196.5,409.1875" style="stroke:#A80036;stroke-width:1.0;"/><text fill="#000000" font-family="sans-serif" font-size="13" lengthAdjust="spacing" textLength="234" x="196.5" y="391.1216">filter(new rules, total_risk_threshold)</text><path d="M46,427.1875 L46,467.1875 L318,467.1875 L318,437.1875 L308,427.1875 L46,427.1875 " fill="#FBFB77" filter="url(#fs6yucuvqru16)" style="stroke:#A80036;stroke-width:1.0;"/><path d="M308,427.1875 L308,437.1875 L318,437.1875 L308,427.1875 " fill="#FBFB77" style="stroke:#A80036;stroke-width:1.0;"/><text fill="#000000" font-family="sans-serif" font-size="13" lengthAdjust="spacing" textLength="251" x="52" y="444.2544">currently any new rule will be reported,</text><text fill="#000000" font-family="sans-serif" font-size="13" lengthAdjust="spacing" textLength="237" x="52" y="459.3872">but filtering can be changed in future</text><line style="stroke:#A80036;stroke-width:1.0;stroke-dasharray:2.0,2.0;" x1="147.5" x2="189.5" y1="517.7188" y2="517.7188"/><line style="stroke:#A80036;stroke-width:1.0;stroke-dasharray:2.0,2.0;" x1="147.5" x2="147.5" y1="517.7188" y2="530.7188"/><line style="stroke:#A80036;stroke-width:1.0;stroke-dasharray:2.0,2.0;" x1="147.5" x2="194.5" y1="530.7188" y2="530.7188"/><polygon fill="#A80036" points="174.5,526.7188,184.5,530.7188,174.5,534.7188,178.5,530.7188" style="stroke:#A80036;stroke-width:1.0;"/><text fill="#000000" font-family="sans-serif" font-size="13" lengthAdjust="spacing" textLength="45" x="144.5" y="497.52">filtered</text><text fill="#000000" font-family="sans-serif" font-size="13" lengthAdjust="spacing" textLength="31" x="144.5" y="512.6528">rules</text><path d="M80,540.7188 L336,540.7188 L336,547.7188 L326,557.7188 L80,557.7188 L80,540.7188 " fill="#EEEEEE" style="stroke:#000000;stroke-width:1.0;"/><rect fill="none" height="174.7969" style="stroke:#000000;stroke-width:2.0;" width="866" x="80" y="540.7188"/><text fill="#000000" font-family="sans-serif" font-size="13" font-weight="bold" lengthAdjust="spacing" textLength="211" x="95" y="553.7856">At least one rule was found</text><line style="stroke:#A80036;stroke-width:1.0;" x1="184.5" x2="231.5" y1="573.9844" y2="573.9844"/><line style="stroke:#A80036;stroke-width:1.0;" x1="231.5" x2="231.5" y1="573.9844" y2="586.9844"/><line style="stroke:#A80036;stroke-width:1.0;" x1="190.5" x2="231.5" y1="586.9844" y2="586.9844"/><polygon fill="#A80036" points="200.5,582.9844,190.5,586.9844,200.5,590.9844,196.5,586.9844" style="stroke:#A80036;stroke-width:1.0;"/><text fill="#000000" font-family="sans-serif" font-size="13" lengthAdjust="spacing" textLength="442" x="196.5" y="568.9185">prepare_notification_message(filtered rules, weekly report template)</text><line style="stroke:#A80036;stroke-width:1.0;stroke-dasharray:2.0,2.0;" x1="147.5" x2="189.5" y1="641.25" y2="641.25"/><line style="stroke:#A80036;stroke-width:1.0;stroke-dasharray:2.0,2.0;" x1="147.5" x2="147.5" y1="641.25" y2="654.25"/><line style="stroke:#A80036;stroke-width:1.0;stroke-dasharray:2.0,2.0;" x1="147.5" x2="194.5" y1="654.25" y2="654.25"/><polygon fill="#A80036" points="174.5,650.25,184.5,654.25,174.5,658.25,178.5,654.25" style="stroke:#A80036;stroke-width:1.0;"/><text fill="#000000" font-family="sans-serif" font-size="13" lengthAdjust="spacing" textLength="71" x="118.5" y="621.0513">notification</text><text fill="#000000" font-family="sans-serif" font-size="13" lengthAdjust="spacing" textLength="59" x="118.5" y="636.1841">message</text><polygon fill="#A80036" points="802,674.3828,812,678.3828,802,682.3828,806,678.3828" style="stroke:#A80036;stroke-width:1.0;"/><line style="stroke:#A80036;stroke-width:1.0;" x1="184.5" x2="808" y1="678.3828" y2="678.3828"/><text fill="#000000" font-family="sans-serif" font-size="13" lengthAdjust="spacing" textLength="181" x="191.5" y="673.3169">notify(notification message)</text><polygon fill="#A80036" points="195.5,703.5156,185.5,707.5156,195.5,711.5156,191.5,707.5156" style="stroke:#A80036;stroke-width:1.0;"/><line style="stroke:#A80036;stroke-width:1.0;stroke-dasharray:2.0,2.0;" x1="189.5" x2="818" y1="707.5156" y2="707.5156"/><text fill="#000000" font-family="sans-serif" font-size="13" lengthAdjust="spacing" textLength="59" x="201.5" y="702.4497">accepted</text><!--MD5=[15a0c74742a0042ee0e35e2a7dd5e4c9]
@startuml
participant Timer
participant "ccx-notification-service"
participant "Notification\ndatabase"
participant "Kafka topic\nplatform.notifications.ingress"

note over Timer : CRON rule
note over "ccx-notification-service" : CRON job configured and\ndeployed to OpenShift
note over "Notification\ndatabase" : AWS RDS\nor regular PostgreSQL
note over "Kafka topic\nplatform.notifications.ingress" : Notification\nservice gateway
Timer -> "ccx-notification-service" : notify(tick)
"ccx-notification-service" -> "Notification\ndatabase" : request(read results, cluster UUID, -7 days to today)
activate "Notification\ndatabase"
"ccx-notification-service" <- - "Notification\ndatabase": list of results for cluster UUID
deactivate "Notification\ndatabase"
loop iterate over all results
"ccx-notification-service" -> "ccx-notification-service" : filter(new rules, total_risk_threshold)
activate "ccx-notification-service"
note over "ccx-notification-service" : currently any new rule will be reported,\nbut filtering can be changed in future
"ccx-notification-service" <- - "ccx-notification-service": filtered\nrules
deactivate "ccx-notification-service"
group At least one rule was found
"ccx-notification-service" -> "ccx-notification-service" : prepare_notification_message(filtered rules, weekly report template)
activate "ccx-notification-service"
"ccx-notification-service" <- - "ccx-notification-service": notification\nmessage
deactivate "ccx-notification-service"
"ccx-notification-service" -> "Kafka topic\nplatform.notifications.ingress" : notify(notification message)
activate "Kafka topic\nplatform.notifications.ingress"
"ccx-notification-service" <- - "Kafka topic\nplatform.notifications.ingress": accepted
deactivate "Kafka topic\nplatform.notifications.ingress"
end
end
@enduml

PlantUML version 1.2021.10beta2(Unknown compile time)
(GPL source distribution)
Java Runtime: Java(TM) SE Runtime Environment
JVM: Java HotSpot(TM) 64-Bit Server VM
Default Encoding: UTF-8
Language: en
Country: US
--></g></svg>